# xmcd CD database file
#
# Track frame offsets:
#	150
#	16857
#	35145
#	57238
#	72669
#	94201
#	107755
#	125734
#	139337
#	156744
#	172355
#
# Disc length: 2464 seconds
#
# Revision: 0
# Processed by: cddbd v1.4PL0 Copyright (c) Steve Scherf et al.
# Submitted via: CDex 1.50Beta7
#
DISCID=b0099e0b
DTITLE=Zabjak trio - Doktor piska pocasni sving
DYEAR=2001
DGENRE=Jazz
TTITLE0=Pismo
TTITLE1=Lenora
TTITLE2=Doktor piska pocasni sving
TTITLE3=Bariloche
TTITLE4=Kurtizana
TTITLE5=Zabjak blues
TTITLE6=Ucenjak
TTITLE7=Gorenjska
TTITLE8=Otozno medvedu
TTITLE9=Moraliteta
TTITLE10=Juz kocham cie
EXTD=YEAR: 2001
EXTT0=
EXTT1=
EXTT2=
EXTT3=
EXTT4=
EXTT5=
EXTT6=
EXTT7=
EXTT8=
EXTT9=
EXTT10=
PLAYORDER=
